<?xml version="1.0" encoding="UTF-8"?>
<svg version="1.1" xmlns="http://www.w3.org/2000/svg" width="500" height="500">
<path d="M0 0 C0.33 -0.33 0.66 -0.66 1 -1 C3.04123738 -1.09898575 5.08595697 -1.12632306 7.1295929 -1.12698364 C7.77690988 -1.12854363 8.42422687 -1.13010362 9.09115952 -1.13171089 C11.27604633 -1.13572267 13.46086454 -1.13253053 15.64575195 -1.12939453 C17.20589234 -1.13074853 18.76603241 -1.13252846 20.32617188 -1.13470459 C24.57625361 -1.13928018 28.82631119 -1.13748855 33.07639337 -1.1343255 C37.51749759 -1.1318012 41.95859968 -1.13413976 46.39970398 -1.13571167 C53.86242038 -1.13753373 61.3251269 -1.1351267 68.7878418 -1.13037109 C77.41911688 -1.12493437 86.05036832 -1.12668669 94.68164283 -1.1321975 C102.08378944 -1.13673472 109.48592893 -1.137376 116.88807648 -1.13475883 C121.3125527 -1.13319865 125.7370178 -1.13299511 130.1614933 -1.13629532 C134.3236845 -1.13918265 138.48584524 -1.13718242 142.64803314 -1.13140106 C144.1766702 -1.13007785 145.70530981 -1.13046017 147.23394585 -1.13266373 C149.31915066 -1.13539256 151.40425761 -1.13197276 153.48945618 -1.12698364 C154.65699086 -1.12660662 155.82452555 -1.12622959 157.02744007 -1.12584114 C159.55433579 -1.01886687 161.58099143 -0.64857174 164 0 C164.62003906 -0.17660156 165.24007812 -0.35320312 165.87890625 -0.53515625 C174.0103868 -2.31719342 186.96405546 5.12801794 194 9 C194.33 9.66 194.66 10.32 195 11 C195.71285156 11.25523438 196.42570312 11.51046875 197.16015625 11.7734375 C200.94068224 13.40629192 203.46896721 15.81656689 206.4375 18.625 C207.30072876 19.43469238 207.30072876 19.43469238 208.18139648 20.26074219 C214.6509771 26.43135882 219.39199537 32.80682282 223 41 C223.350625 41.79535156 223.70125 42.59070313 224.0625 43.41015625 C227.16115151 50.78084568 229.41413972 57.92427547 229 66 C229.33 66 229.66 66 230 66 C230.20927813 75.47535845 230.3688165 84.94991195 230.46630955 94.42708397 C230.51312201 98.82868923 230.57652522 103.22870438 230.67895508 107.62939453 C230.77733276 111.88300621 230.83067734 116.13509689 230.85389519 120.38975906 C230.87042205 122.00614986 230.90269732 123.62246485 230.95157051 125.23820114 C231.18408958 133.2497963 231.32142458 139.5005077 225.67822266 145.82250977 C224.14494364 147.24372564 222.5867209 148.63870801 221 150 C219.74176105 151.32073948 218.49531934 152.65299485 217.26953125 154.00390625 C216.11961297 155.1924556 214.96731902 156.37871174 213.8125 157.5625 C212.9472168 158.48385742 212.9472168 158.48385742 212.06445312 159.42382812 C208.54544266 163.0142503 206.26196743 164.8003806 201 165 C201 164.34 201 163.68 201 163 C200.34 163 199.68 163 199 163 C198.99120064 161.23592804 198.99120064 161.23592804 198.98222351 159.43621826 C198.92483329 148.31441882 198.85198722 137.19281184 198.76428509 126.07120895 C198.71969347 120.35445332 198.68041287 114.63776712 198.65356445 108.92089844 C198.62741941 103.39645342 198.58693852 97.87227721 198.53681374 92.34799957 C198.52022049 90.24789034 198.50865953 88.14773469 198.50238609 86.04756927 C198.44670628 69.11010753 197.74172693 54.47705904 185.875 41.25 C181.32292858 36.95195043 175.67583592 34.49767712 170 32 C169.17757812 31.63519531 168.35515625 31.27039063 167.5078125 30.89453125 C162.50974376 29.11173103 157.57645372 28.87473729 152.30709839 28.87301636 C151.65959283 28.87145637 151.01208727 28.86989638 150.34496033 28.86828911 C148.18942261 28.86432122 146.03395613 28.86745232 143.87841797 28.87060547 C142.32739216 28.86924959 140.77636668 28.8674686 139.2253418 28.86529541 C135.02307515 28.8607441 130.8208331 28.86250097 126.61856604 28.8656745 C122.21886473 28.86820908 117.8191655 28.86585758 113.41946411 28.86428833 C106.03370791 28.86247023 98.64796171 28.86486393 91.26220703 28.86962891 C82.72228154 28.87507486 74.1823799 28.873305 65.64245498 28.8678025 C58.30814754 28.86326595 50.97384728 28.86262337 43.63953888 28.86524117 C39.2598501 28.86680043 34.88017253 28.8670072 30.50048447 28.86370468 C26.3850111 28.86081798 22.26956855 28.86281642 18.15409851 28.86859894 C16.64319536 28.86992206 15.13228961 28.86954 13.62138748 28.86733627 C11.56053465 28.86460732 9.49978083 28.86802726 7.43893433 28.87301636 C5.70843495 28.8735819 5.70843495 28.8735819 3.942976 28.87415886 C1.42717943 28.98173388 -0.59074692 29.35586644 -3 30 C-5.25 29.5625 -5.25 29.5625 -7 29 C-7 29.99 -7 30.98 -7 32 C-7.87914062 32.268125 -8.75828125 32.53625 -9.6640625 32.8125 C-19.86180811 36.44261085 -27.78093567 43.32576487 -32.99724197 52.81392574 C-37.27300307 62.13534828 -37.42712494 71.98876247 -37.35644531 82.05249023 C-37.35723814 83.52396262 -37.35934138 84.99543478 -37.36264038 86.46690369 C-37.36772894 90.42518251 -37.35433409 94.38319679 -37.33711338 98.34143329 C-37.32197116 102.49772117 -37.32324903 106.65400714 -37.32244873 110.81031799 C-37.31876946 117.77943382 -37.30386451 124.74845036 -37.28125 131.7175293 C-37.25229767 140.65782372 -37.24201675 149.59803868 -37.2375679 158.5383749 C-37.23358724 166.24187667 -37.22109315 173.94536126 -37.20722103 181.64885068 C-37.20312878 184.11881486 -37.20019994 186.58877845 -37.19742584 189.05874443 C-37.19252583 192.9371087 -37.18231063 196.81542508 -37.16798782 200.69376564 C-37.16347456 202.11555931 -37.16062846 203.53735941 -37.15958023 204.95915985 C-37.15782743 206.90108187 -37.149301 208.84299425 -37.14044189 210.78489685 C-37.13746723 211.87085364 -37.13449257 212.95681044 -37.13142776 214.07567501 C-37.03163945 219.26247373 -37.03163945 219.26247373 -34.5 223.5 C-32.50098925 225.49901075 -32.37109019 227.25393258 -32 230 C-31.34 230 -30.68 230 -30 230 C-29.649375 230.680625 -29.29875 231.36125 -28.9375 232.0625 C-23.90755323 239.68854833 -15.6911102 243.9261993 -7 246 C-6.36384766 245.14728516 -6.36384766 245.14728516 -5.71484375 244.27734375 C0.35881454 236.28147272 6.85045763 228.57477119 16 224 C16.680625 223.4225 17.36125 222.845 18.0625 222.25 C23.56809842 218.03294589 29.36511861 215.01931173 36 213 C38.35406447 212.04306322 40.6736844 211.02357886 43 210 C41.22970554 208.70759488 39.45874502 207.41610207 37.6875 206.125 C36.70136719 205.40570313 35.71523437 204.68640625 34.69921875 203.9453125 C32.82476885 202.5944065 30.92247007 201.28164671 29 200 C29 199.34 29 198.68 29 198 C28.41734375 197.92136719 27.8346875 197.84273437 27.234375 197.76171875 C18.77607831 194.87820852 12.98081928 180.63403997 9 173 C8.67 172.01 8.34 171.02 8 170 C8.33 169.67 8.66 169.34 9 169 C8.34 168.67 7.68 168.34 7 168 C5.75204162 161.7602081 5.48902031 155.3364546 5 149 C4.34 149 3.68 149 3 149 C2.95063842 143.90968245 2.91429895 138.81950357 2.89013672 133.72900391 C2.88006624 131.99655735 2.86640911 130.26412784 2.84912109 128.53173828 C2.82491838 126.04455361 2.81352761 123.55759325 2.8046875 121.0703125 C2.79436493 120.29317902 2.78404236 119.51604553 2.77340698 118.71536255 C2.77300729 116.80874507 2.8776786 114.90268964 3 113 C3.66 112.34 4.32 111.68 5 111 C5.22875262 108.81961108 5.35950438 106.62846789 5.4375 104.4375 C6.03612813 94.49418522 8.95459649 87.48022219 14 79 C14.556875 78.01 15.11375 77.02 15.6875 76 C17 74 17 74 19 73 C19.556875 72.13375 20.11375 71.2675 20.6875 70.375 C27.42510095 59.98268561 40.78014991 49.35185432 52.9375 46.6875 C53.64777344 46.56761719 54.35804688 46.44773438 55.08984375 46.32421875 C58.28522363 45.78185366 60.2875544 44.80829707 63 43 C63.61875 43.165 64.2375 43.33 64.875 43.5 C67.03973526 44.23905549 67.03973526 44.23905549 69.07421875 43.046875 C73.07484432 41.61540951 76.72269375 41.7087121 80.9375 41.75 C82.11602539 41.73839844 82.11602539 41.73839844 83.31835938 41.7265625 C87.99029989 41.74220079 91.55772118 42.43758897 96 44 C96.99 43.67 97.98 43.34 99 43 C101.0625 43.875 101.0625 43.875 103 45 C105.21029533 46.10514766 107.21076314 46.54516353 109.625 47.0625 C110.44226563 47.23910156 111.25953125 47.41570312 112.1015625 47.59765625 C112.72804688 47.73042969 113.35453125 47.86320312 114 48 C114 48.66 114 49.32 114 50 C114.70125 50.0825 115.4025 50.165 116.125 50.25 C119.66786139 51.17422471 122.12296848 52.82971752 125 55 C126.16789062 55.87205078 126.16789062 55.87205078 127.359375 56.76171875 C133.21245613 61.27568587 139.62499388 66.24998777 143 73 C143.61617187 73.74765625 144.23234375 74.4953125 144.8671875 75.265625 C149.8505709 81.65457808 153.32454226 89.14618087 154.578125 97.16015625 C154.95979827 99.32396239 154.95979827 99.32396239 157 102 C157.0396713 103.66619446 157.04384447 105.33391013 157 107 C157.33 107.33 157.66 107.66 158 108 C158.04063832 109.66617115 158.042721 111.33388095 158 113 C157.34 113 156.68 113 156 113 C156.11852115 118.17796403 156.24278768 123.35574683 156.37231445 128.53344727 C156.41555069 130.29382608 156.4572335 132.05424378 156.49731445 133.81469727 C156.55529185 136.34924013 156.61890627 138.88358934 156.68359375 141.41796875 C156.70866249 142.59325386 156.70866249 142.59325386 156.73423767 143.7922821 C156.83807253 147.64675475 157.18795026 151.23582454 158 155 C157.6875 157.75 157.6875 157.75 157 160 C156.34 160.33 155.68 160.66 155 161 C154.64590561 162.9945441 154.64590561 162.9945441 154.5625 165.3125 C154.22165883 169.16522253 153.61725286 171.0686768 151 174 C150.69835937 174.75539062 150.39671875 175.51078125 150.0859375 176.2890625 C144.72980152 189.66013576 133.06567315 201.24337756 120.6640625 208.3359375 C117.45776398 210.33869874 114.61490062 212.67301589 111.75 215.125 C111.18079834 215.61145996 110.61159668 216.09791992 110.02514648 216.59912109 C96.09224837 228.08113601 96.09224837 228.08113601 89 244 C88.8182345 247.67273239 88.89702186 251.32530625 89 255 C89.0309375 256.6396875 89.0309375 256.6396875 89.0625 258.3125 C90.29940601 261.85829724 92.30791638 263.27288901 95.2109375 265.5546875 C97.55750044 267.45038245 99.31416573 269.50496528 101 272 C101 272.99 101 273.98 101 275 C100.01 275 99.02 275 98 275 C97.67 275.66 97.34 276.32 97 277 C91.53735686 277.02476266 86.07474657 277.04288974 80.61206055 277.05493164 C78.75463288 277.05995303 76.89720915 277.06677141 75.03979492 277.07543945 C72.36636379 277.08760117 69.69298504 277.09325033 67.01953125 277.09765625 C66.19226028 277.10281754 65.36498932 277.10797882 64.51264954 277.11329651 C60.5377466 277.1136812 56.88043167 276.98980119 53 276 C52.76680054 276.55818924 52.53360107 277.11637848 52.29333496 277.69148254 C50.66854887 280.59161836 48.66051339 282.58630687 46.30664062 284.9362793 C45.8316362 285.41318207 45.35663177 285.89008484 44.86723328 286.38143921 C43.30174387 287.95062218 41.72919037 289.51250747 40.15625 291.07421875 C39.06494293 292.16433332 37.9740057 293.25481824 36.88342285 294.34565735 C34.60000453 296.62751336 32.31327075 298.9059752 30.02392578 301.18188477 C27.08645858 304.10233233 24.15564745 307.02934977 21.22705841 309.95869732 C18.97633112 312.20915304 16.72300978 314.45699578 14.46879578 316.70395851 C13.38689711 317.78267113 12.30560645 318.86199391 11.22492981 319.94193077 C9.71690587 321.4477922 8.20563861 322.95031793 6.69335938 324.4519043 C5.40335022 325.73619576 5.40335022 325.73619576 4.08728027 327.0464325 C1.60221828 329.37229952 0.56348855 329.92486819 -2.8125 330.375 C-6 330 -6 330 -8.6550293 328.19067383 C-12.12035768 323.47559037 -11.72807575 319.28870326 -11.70703125 313.57421875 C-11.72215256 312.47149124 -11.73727386 311.36876373 -11.75285339 310.23262024 C-11.79577333 306.71737284 -11.80457305 303.20298347 -11.8125 299.6875 C-11.83564079 297.30140941 -11.86100524 294.91533928 -11.88867188 292.52929688 C-11.95156675 286.68618982 -11.98646682 280.84341864 -12 275 C-13.25772217 275.01675781 -14.51544434 275.03351563 -15.8112793 275.05078125 C-25.95328933 275.18591277 -35.67164782 268.53492822 -43 262 C-43 261.34 -43 260.68 -43 260 C-43.5775 259.9175 -44.155 259.835 -44.75 259.75 C-47.6539336 258.78202213 -49.03740604 257.31305716 -51 255 C-51 254.34 -51 253.68 -51 253 C-52.16427416 251.8699692 -53.32903728 250.74043835 -54.49609375 249.61328125 C-59.32597894 244.43213168 -62.4564219 238.8759388 -64 232 C-65.06201737 229.77260299 -65.06201737 229.77260299 -67 227 C-68.54743164 218.01379943 -68.14889936 208.63995428 -68.14526367 199.55200195 C-68.14826306 198.03775959 -68.15166736 196.52351798 -68.15544128 195.00927734 C-68.16420068 190.93306322 -68.16661581 186.85687014 -68.16725707 182.78064752 C-68.16797153 180.22833241 -68.17011318 177.67602253 -68.17275429 175.12370872 C-68.18197707 166.204458 -68.18609254 157.28522213 -68.18530273 148.3659668 C-68.18470097 140.07366089 -68.19528005 131.78141981 -68.2110464 123.48913032 C-68.22414087 116.34570395 -68.22948592 109.20229875 -68.22884732 102.05886048 C-68.22859314 97.80260215 -68.23140097 93.5464017 -68.24202538 89.29015541 C-68.25173999 85.29029144 -68.25176261 81.29054036 -68.24450874 77.2906723 C-68.24346747 75.82862622 -68.24579845 74.36657296 -68.2518692 72.90453911 C-68.29281757 62.35487268 -67.44520448 53.63127637 -63 44 C-62.649375 43.113125 -62.29875 42.22625 -61.9375 41.3125 C-60.32291161 37.32984865 -58.38621649 33.57932474 -56 30 C-55.34 30 -54.68 30 -54 30 C-53.814375 29.319375 -53.62875 28.63875 -53.4375 27.9375 C-51.40033707 23.77460183 -48.38332293 21.1099231 -45 18 C-44.08927734 17.13568359 -44.08927734 17.13568359 -43.16015625 16.25390625 C-39.91180047 13.28987045 -37.57846812 11.27748292 -33 11 C-33 10.34 -33 9.68 -33 9 C-25.53848461 5.22887862 -19.35463154 2.54784469 -11 2 C-10.34 1.34 -9.68 0.68 -9 0 C-5.70070881 -1.25145528 -3.3860661 -0.7321224 0 0 Z M-37 57 C-36 60 -36 60 -36 60 Z M197 57 C198 59 198 59 198 59 Z M10 88 C11 90 11 90 11 90 Z M89 236 C90 238 90 238 90 238 Z " fill="#0091E0" transform="translate(150,81)"/>
<path d="M0 0 C4.43988436 1.66287804 7.9519099 5.30610375 11.0859375 8.78125 C11.0859375 9.44125 11.0859375 10.10125 11.0859375 10.78125 C11.6634375 11.008125 12.2409375 11.235 12.8359375 11.46875 C16.97290293 13.88197983 18.7586229 16.65610605 20.0859375 21.21875 C20.0859375 27.55003995 15.59048176 31.52678713 11.30395508 35.81719971 C10.83783467 36.28644009 10.37171427 36.75568048 9.891469 37.23914027 C8.34250126 38.79602764 6.78655329 40.34573611 5.23046875 41.89550781 C4.11281602 43.01587301 2.99558869 44.1366627 1.87875366 45.25784302 C-1.14544507 48.29113543 -4.17590692 51.31809635 -7.20782852 54.34366703 C-10.38268144 57.51344683 -13.55264093 60.68811431 -16.72338867 63.86199951 C-22.04604969 69.18829528 -27.37290542 74.51036857 -32.70214844 79.83007812 C-38.86347124 85.98050616 -45.01754095 92.13812108 -51.16791439 98.29949689 C-56.45180715 103.59246317 -61.73958438 108.88152505 -67.03063297 114.16733813 C-70.18952132 117.32310858 -73.34704306 120.48021451 -76.50106812 123.64084625 C-79.4645563 126.61010856 -82.43288823 129.57444163 -85.40504074 132.53503036 C-86.49519574 133.62253963 -87.58365009 134.71175674 -88.67027664 135.8027916 C-90.15296981 137.29094467 -91.6416777 138.77280851 -93.13208008 140.25323486 C-93.96387283 141.08427357 -94.79566559 141.91531227 -95.65266418 142.77153397 C-98.79571693 145.56478071 -100.6431854 146.83648194 -104.88052368 146.65232849 C-108.40141441 145.64130725 -109.88306146 144.42938303 -112.45068359 141.84399414 C-113.29110199 141.00965347 -114.13152039 140.17531281 -114.99740601 139.31568909 C-115.88513702 138.40842575 -116.77286804 137.50116241 -117.6875 136.56640625 C-118.6112442 135.64033066 -119.5349884 134.71425507 -120.48672485 133.76011658 C-122.43595363 131.80473672 -124.37665015 129.84140151 -126.31103516 127.87133789 C-128.79417935 125.34276535 -131.29247471 122.82986337 -133.79657555 120.32206059 C-136.18288584 117.93026824 -138.56016521 115.52962188 -140.9375 113.12890625 C-141.8373764 112.22366714 -142.73725281 111.31842804 -143.66439819 110.38575745 C-144.48590363 109.54826462 -145.30740906 108.71077179 -146.15380859 107.84790039 C-146.88183685 107.10923233 -147.60986511 106.37056427 -148.35995483 105.60951233 C-149.9140625 103.78125 -149.9140625 103.78125 -149.9140625 101.78125 C-151.37239608 100.15610532 -151.37239608 100.15610532 -152.9140625 98.78125 C-151.49612891 94.26964312 -149.30342186 92.01997117 -145.9140625 88.78125 C-144.78163028 87.45422323 -143.65712184 86.12040872 -142.5390625 84.78125 C-138.62942996 80.30340623 -134.91131487 76.54650593 -128.9765625 75.03125 C-122.92157271 76.51410464 -118.30487653 81.70027789 -114.9140625 86.78125 C-114.9140625 87.44125 -114.9140625 88.10125 -114.9140625 88.78125 C-114.2128125 88.8225 -113.5115625 88.86375 -112.7890625 88.90625 C-108.63482223 90.17058399 -106.82773535 92.59653782 -103.9140625 95.78125 C-99.76345569 94.15103268 -97.00242131 91.12358063 -93.94140625 88.00390625 C-93.37708389 87.436754 -92.81276154 86.86960175 -92.2313385 86.28526306 C-90.43331767 84.47607855 -88.64237533 82.66006682 -86.8515625 80.84375 C-85.64304129 79.62519151 -84.43406174 78.40708742 -83.22460938 77.18945312 C-81.00617889 74.95470712 -78.7903654 72.71743934 -76.57788086 70.47680664 C-74.69570519 68.57220564 -72.81066431 66.67141659 -70.9140625 64.78125 C-70.0684375 63.935625 -69.2228125 63.09 -68.3515625 62.21875 C-66.87239583 60.73958333 -65.39322917 59.26041667 -63.9140625 57.78125 C-63.3159375 56.9975 -62.7178125 56.21375 -62.1015625 55.40625 C-59.90033062 52.76477175 -57.62379525 50.88129288 -54.9140625 48.78125 C-52.71492696 46.7153954 -50.8266333 44.66843813 -48.9765625 42.28125 C-46.83207917 39.68187627 -44.57095669 37.840343 -41.9140625 35.78125 C-40.55973575 34.46924596 -39.22672768 33.13493596 -37.9140625 31.78125 C-24.9140625 18.78125 -24.9140625 18.78125 -22.4140625 16.34375 C-19.93659038 13.91107144 -19.93659038 13.91107144 -18.1640625 11.46875 C-7.59629024 -1.15386687 -7.59629024 -1.15386687 0 0 Z M-4.9140625 0.78125 C-0.9140625 1.78125 -0.9140625 1.78125 -0.9140625 1.78125 Z " fill="#0092E1" transform="translate(405.9140625,231.21875)"/>
<path d="M0 0 C4.96859379 0.11829985 8.18321885 2.14009326 12.16796875 4.84375 C17.45988965 8.18364037 23.99298057 7.51508625 30 7 C34.25697019 5.76272233 37.77583924 4.01430463 41.1875 1.1875 C43 0 43 0 46.1875 0.25 C49 1 49 1 50 2 C50.52017185 5.81459358 50.41493449 7.45121567 48.0625 10.5625 C38.57887441 18.11069179 29.98903642 19.81846772 18 19 C10.75113285 17.75492529 4.66067818 14.68469918 -1 10 C-3 7 -3 7 -2.75 4.4375 C-2 2 -2 2 0 0 Z " fill="#00365A" transform="translate(207,238)"/>
<path d="M0 0 C0.99 0.33 1.98 0.66 3 1 C2.77728574 11.69028436 -7.60333823 18.74579217 -14.69897461 25.8125 C-15.6558751 26.76911776 -16.61255415 27.72595708 -17.56903076 28.68299866 C-20.14274725 31.25699976 -22.71951518 33.8279257 -25.29687953 36.39827347 C-27.99860034 39.09370439 -30.69745247 41.79200464 -33.3966217 44.48999023 C-38.49782222 49.58809395 -43.60156439 54.68364517 -48.70624501 59.77826405 C-54.52207117 65.58287756 -60.33502722 71.39036174 -66.14775455 77.19807816 C-78.09533237 89.13522901 -90.04647505 101.06880449 -102 113 C-102.33 111.68 -102.66 110.36 -103 109 C-101.989375 108.175 -100.97875 107.35 -99.9375 106.5 C-97.138603 104.11952396 -94.73906755 101.6234023 -92.375 98.8125 C-89.81042494 95.77641114 -87.43989723 94.00660672 -84 92 C-83.55140625 91.23171875 -83.1028125 90.4634375 -82.640625 89.671875 C-80.87598164 86.79802724 -79.07102393 85.10367114 -76.5 82.9375 C-72.73916832 79.66253117 -69.33162042 76.25937097 -66.01196289 72.54003906 C-60.28431445 66.20476472 -54.25659442 60.20904144 -48.15673637 54.23439789 C-44.93261419 51.07241505 -41.72482326 47.89389461 -38.51367188 44.71875 C-34.45942954 40.71246988 -30.40060499 36.71111065 -26.3269043 32.72460938 C-23.00085145 29.4689067 -19.68973371 26.19865485 -16.38798714 22.91831207 C-15.1362995 21.68015845 -13.87923118 20.44741855 -12.61660576 19.22042084 C-10.85576227 17.50801253 -9.1146395 15.77760855 -7.37670898 14.04199219 C-6.8588382 13.5472641 -6.34096741 13.05253601 -5.80740356 12.54281616 C-1.91048789 8.59007502 -0.97195791 5.30275827 0 0 Z " fill="#038EC6" transform="translate(423,250)"/>
<path d="M0 0 C3.57080513 2.94979554 5.78414179 5.10044775 6.3125 9.75 C5.91993628 13.83266269 4.53100884 15.81816032 2 19 C-1 21 -1 21 -4.4375 20.875 C-8.29499863 19.9275442 -9.62192733 19.10978733 -12 16 C-13.20190901 12.39427296 -13.32670315 9.7897565 -13 6 C-9.34110372 0.38969236 -6.66973311 -0.67827794 0 0 Z " fill="#00365B" transform="translate(266,191)"/>
<path d="M0 0 C3.57080513 2.94979554 5.78414179 5.10044775 6.3125 9.75 C5.91993628 13.83266269 4.53100884 15.81816032 2 19 C-1 21 -1 21 -4.4375 20.875 C-8.43272457 19.89371677 -9.76829163 19.43339749 -12 16 C-13.17711459 11.65685307 -13.52930318 8.24386248 -11.75 4.0625 C-8.17180263 -0.15466119 -5.35509894 -0.64630504 0 0 Z " fill="#003559" transform="translate(203,191)"/>
<path d="M0 0 C0.33 0 0.66 0 1 0 C1.99758692 7.34862108 2.18777622 14.61026217 2.26036072 22.02167511 C2.28166734 24.1829585 2.3086577 26.34410862 2.33703613 28.50531006 C2.40630785 33.86553111 2.46626312 39.22584791 2.52606201 44.58618164 C2.57711866 49.13486526 2.63194616 53.68347243 2.69187927 58.23204803 C2.71830922 60.35521634 2.73919971 62.47839268 2.7598877 64.60162354 C2.77660522 65.89356628 2.79332275 67.18550903 2.81054688 68.51660156 C2.82307495 69.65083557 2.83560303 70.78506958 2.84851074 71.95367432 C3.0375221 77.30918672 3.0375221 77.30918672 5.5625 81.8125 C6.036875 82.204375 6.51125 82.59625 7 83 C6.505 83.99 6.505 83.99 6 85 C3 84 3 84 2.0859375 82.36328125 C1.73402344 81.34814453 1.73402344 81.34814453 1.375 80.3125 C1.01535156 79.31669922 1.01535156 79.31669922 0.6484375 78.30078125 C-0.7784663 73.23785149 -1.12588474 68.35221005 -1.12939453 63.10839844 C-1.13114685 62.44749207 -1.13289917 61.78658569 -1.13470459 61.10565186 C-1.13907499 58.94019885 -1.13620355 56.7748287 -1.1328125 54.609375 C-1.1334866 53.09816472 -1.13445751 51.58695454 -1.13571167 50.07574463 C-1.13718184 46.91864991 -1.1350548 43.76158359 -1.13037109 40.60449219 C-1.12465459 36.55353429 -1.12796921 32.50264237 -1.13394356 28.45168686 C-1.13755089 25.33595275 -1.13641013 22.22023439 -1.13381577 19.10449982 C-1.13314799 17.61013023 -1.13396974 16.11575922 -1.13629532 14.6213913 C-1.13882676 12.53889653 -1.1349752 10.45651011 -1.12939453 8.37402344 C-1.12859894 7.18854919 -1.12780334 6.00307495 -1.12698364 4.78167725 C-1 2 -1 2 0 0 Z " fill="#0489DA" transform="translate(110,223)"/>
<path d="M0 0 C0.33 0 0.66 0 1 0 C1.00331015 0.70493025 1.00662029 1.4098605 1.01003075 2.13615227 C1.09160107 19.3670311 1.18380159 36.59782115 1.28752708 53.82858086 C1.33743926 62.16158122 1.38388268 70.49457278 1.421875 78.82763672 C1.45503623 86.09907355 1.49499623 93.37043748 1.54279006 100.64179337 C1.56781798 104.48433494 1.58966604 108.32682966 1.60334396 112.16942978 C0.61304468 139.69823108 0.61304468 139.69823108 7.11328125 165.94140625 C8.40785268 168.94686503 8.71788682 171.75569843 9 175 C5.11469122 171.76224269 4.16844014 168.85352058 3 164 C1.93798263 161.77260299 1.93798263 161.77260299 0 159 C-1.51890842 150.19569705 -1.10893213 141.04455358 -1.02172852 132.14355469 C-1.01155853 130.69353041 -1.00186793 129.24350271 -0.99261475 127.79347229 C-0.96640554 123.89549892 -0.93357406 119.99760733 -0.89946485 116.09969616 C-0.86484908 112.01182552 -0.83644669 107.92391157 -0.80735779 103.83599854 C-0.75146601 96.11213809 -0.69006502 88.38833187 -0.62663645 80.66453004 C-0.55463727 71.86396716 -0.48885322 63.06336116 -0.42356598 54.26274633 C-0.28924516 36.17510804 -0.14720138 18.08753783 0 0 Z " fill="#0489CF" transform="translate(83,149)"/>
<path d="M0 0 C0.763125 0.165 1.52625 0.33 2.3125 0.5 C4.87832331 1.18818383 4.87832331 1.18818383 6.84375 0.453125 C9.65035752 -0.13666933 11.45548454 0.42676343 14.1875 1.25 C15.50814453 1.62898438 15.50814453 1.62898438 16.85546875 2.015625 C17.91701172 2.50289063 17.91701172 2.50289063 19 3 C19.33 3.99 19.66 4.98 20 6 C18.47897677 5.85616078 16.95819103 5.70980986 15.4375 5.5625 C14.16712891 5.44068359 14.16712891 5.44068359 12.87109375 5.31640625 C10.82241762 5.09063378 8.77958835 4.80892477 6.7433157 4.49011326 C3.19247512 4.02520082 -0.18592675 3.86196496 -3.7641449 3.84178162 C-4.40716004 3.83684364 -5.05017518 3.83190566 -5.71267563 3.82681805 C-7.84677812 3.81157665 -9.98085086 3.8031191 -12.11499023 3.79467773 C-13.65295163 3.78508867 -15.19091045 3.775078 -16.72886658 3.76467896 C-20.88945983 3.73773516 -25.0500643 3.71666888 -29.21069598 3.69667697 C-33.56423641 3.67475219 -37.91774267 3.64739537 -42.27125549 3.62062073 C-50.50875763 3.57078138 -58.74627883 3.52581019 -66.98381811 3.48259836 C-76.36471932 3.43315097 -85.74558623 3.37826074 -95.12645423 3.32291877 C-114.41760428 3.20923324 -133.70878673 3.10236515 -153 3 C-153 2.67 -153 2.34 -153 2 C-152.21755448 1.99576806 -151.43510897 1.99153612 -150.62895298 1.98717594 C-131.61819881 1.88401395 -112.60748302 1.77539819 -93.59679508 1.66066074 C-84.40349175 1.60530778 -75.21018454 1.55182245 -66.0168457 1.50268555 C-58.00690527 1.45986903 -49.99699365 1.41359755 -41.98709768 1.36312145 C-37.74324438 1.33650003 -33.49939688 1.31164653 -29.25551033 1.29092598 C-25.26568129 1.27139137 -21.27590721 1.24725733 -17.28612709 1.21950912 C-15.81751754 1.2101218 -14.34889591 1.20245261 -12.8802681 1.19658089 C-10.8837422 1.18834826 -8.88724685 1.17348264 -6.89076233 1.15821838 C-5.77078385 1.15176583 -4.65080538 1.14531328 -3.49688816 1.1386652 C-1.05937489 1.28164488 -1.05937489 1.28164488 0 0 Z " fill="#0085D2" transform="translate(309,80)"/>
<path d="M0 0 C2 2 2 2 2.22705078 5.07275391 C2.21657715 6.36101074 2.20610352 7.64926758 2.1953125 8.9765625 C2.1924826 9.66181 2.18965271 10.3470575 2.18673706 11.05307007 C2.17553281 13.24389027 2.15042859 15.43430316 2.125 17.625 C2.11497048 19.1093691 2.10584458 20.5937446 2.09765625 22.078125 C2.07559294 25.71888261 2.04106176 29.35940156 2 33 C5.44095894 31.07523217 8.10814732 29.10524298 10.8125 26.2421875 C11.49570312 25.53449219 12.17890625 24.82679688 12.8828125 24.09765625 C14.29817735 22.61178429 15.7096238 21.12217032 17.1171875 19.62890625 C17.80039062 18.92378906 18.48359375 18.21867187 19.1875 17.4921875 C19.79980469 16.84620605 20.41210938 16.20022461 21.04296875 15.53466797 C23.34852166 13.72669571 25.12257145 13.35843616 28 13 C23.67341244 18.14116114 19.19869798 23.07188651 14.5 27.875 C13.86191406 28.55046875 13.22382813 29.2259375 12.56640625 29.921875 C8.8955043 33.66033956 6.51542619 35.88083956 1 36 C1 35.34 1 34.68 1 34 C0.34 34 -0.32 34 -1 34 C-1.02481344 29.96151684 -1.0429136 25.92306353 -1.05493164 21.88452148 C-1.05994454 20.51211778 -1.06675658 19.13971938 -1.07543945 17.76733398 C-1.08763857 15.78892349 -1.09272248 13.8104732 -1.09765625 11.83203125 C-1.10289307 10.64327393 -1.10812988 9.4545166 -1.11352539 8.22973633 C-1.01239479 5.35262513 -0.66550193 2.79326587 0 0 Z " fill="#018BD6" transform="translate(350,210)"/>
<path d="M0 0 C-0.61875 0.0825 -1.2375 0.165 -1.875 0.25 C-4.14151262 0.76996324 -4.14151262 0.76996324 -4.84896851 2.74884033 C-6.32358375 5.6328573 -8.24478449 7.48411719 -10.54150391 9.76855469 C-11.00021378 10.22755661 -11.45892365 10.68655853 -11.93153381 11.1594696 C-13.4418491 12.66839675 -14.95911388 14.17012454 -16.4765625 15.671875 C-17.5278917 16.71947224 -18.57877885 17.76751328 -19.62924194 18.815979 C-22.39001016 21.5691252 -25.15673249 24.31621127 -27.92474365 27.06207275 C-30.75032928 29.86716916 -33.57023445 32.67796321 -36.390625 35.48828125 C-41.92154374 40.99777532 -47.45876589 46.50087877 -53 52 C-53.66 51.34 -54.32 50.68 -55 50 C-54.2575 49.278125 -53.515 48.55625 -52.75 47.8125 C-50.04139481 45.15316684 -50.04139481 45.15316684 -48.125 42.5625 C-45.83756556 39.80412318 -43.36457814 37.67444085 -40.5859375 35.4296875 C-38.75106596 33.89374096 -38.75106596 33.89374096 -37 31 C-36.34 31 -35.68 31 -35 31 C-34.7525 30.4225 -34.505 29.845 -34.25 29.25 C-32.81700012 26.67060021 -31.21575324 24.93878408 -29 23 C-28.34 23 -27.68 23 -27 23 C-26.67 22.01 -26.34 21.02 -26 20 C-24.5625 18.3125 -24.5625 18.3125 -23 17 C-22.34 17 -21.68 17 -21 17 C-21 16.34 -21 15.68 -21 15 C-20.34 15 -19.68 15 -19 15 C-18.34 13.68 -17.68 12.36 -17 11 C-16.34 11 -15.68 11 -15 11 C-14.67 10.01 -14.34 9.02 -14 8 C-12.37660195 6.29115995 -10.70680947 4.62553283 -9 3 C-8.525625 2.401875 -8.05125 1.80375 -7.5625 1.1875 C-5.15206148 -0.64443328 -2.92189274 -0.19479285 0 0 Z " fill="#0489CA" transform="translate(207,356)"/>
<path d="M0 0 C0.66 0 1.32 0 2 0 C3.02269414 4.39758479 3.1262601 6.97129666 1 11 C0.34 11.66 -0.32 12.32 -1 13 C-1.6787893 14.66176632 -2.34378374 16.32919108 -3 18 C-10.01014328 31.1210262 -21.31992627 42.84396682 -35 49 C-35.495 47.515 -35.495 47.515 -36 46 C-35.32195312 45.52691406 -34.64390625 45.05382812 -33.9453125 44.56640625 C-17.9672625 33.21358125 -4.05428102 19.90283408 0 0 Z " fill="#0286CE" transform="translate(302,242)"/>
<path d="M0 0 C3 1 3 1 4.9375 4.4375 C5.64256004 5.95027249 6.32892088 7.47184978 7 9 C7.35449219 9.804375 7.70898438 10.60875 8.07421875 11.4375 C12.89480762 22.90655902 13.22179607 33.27991904 12.9765625 45.50390625 C12.95035455 47.19496775 12.92509091 48.88604412 12.90072632 50.57713318 C12.83447492 55.00118013 12.75549821 59.42490942 12.67376709 63.84869385 C12.59245425 68.37361577 12.5233195 72.89872249 12.453125 77.42382812 C12.3139252 86.28277344 12.16126588 95.14143079 12 104 C11.67 104 11.34 104 11 104 C10.99191315 103.23595352 10.98382629 102.47190704 10.97549438 101.68470764 C10.89682957 94.40537646 10.80933783 87.12622544 10.71247292 79.84711552 C10.66299711 76.10685325 10.61667296 72.36661282 10.578125 68.6262207 C10.54707093 38.22179012 10.54707093 38.22179012 3 9 C2.38166984 7.21317191 1.77533371 5.42209163 1.1875 3.625 C0.795625 2.42875 0.40375 1.2325 0 0 Z " fill="#0488CF" transform="translate(366,113)"/>
<path d="M0 0 C0.33 0 0.66 0 1 0 C2.25638453 10.63347771 2.15253196 21.27564081 2.13037109 31.96655273 C2.12495841 35.08647398 2.13037001 38.20625471 2.13671875 41.32617188 C2.13605885 43.31250032 2.13477952 45.29882867 2.1328125 47.28515625 C2.13483673 48.21634781 2.13686096 49.14753937 2.13894653 50.10694885 C2.13579437 50.9689238 2.13264221 51.83089874 2.12939453 52.71899414 C2.12820114 53.85383995 2.12820114 53.85383995 2.12698364 55.01161194 C2 57 2 57 1 60 C0.34 60 -0.32 60 -1 60 C-1.02543756 52.74089306 -1.04290364 45.4817977 -1.05493164 38.22265625 C-1.0599481 35.75520396 -1.06676281 33.28775463 -1.07543945 30.8203125 C-1.08762288 27.26561756 -1.0932553 23.71096207 -1.09765625 20.15625 C-1.10281754 19.06010376 -1.10797882 17.96395752 -1.11329651 16.83459473 C-1.11371109 11.12358745 -0.86085547 5.64768846 0 0 Z " fill="#0289D5" transform="translate(350,149)"/>
<path d="M0 0 C0.33 0 0.66 0 1 0 C1 48.84 1 97.68 1 148 C0.67 148 0.34 148 0 148 C0 99.16 0 50.32 0 0 Z " fill="#0074CE" transform="translate(81,147)"/>
<path d="M0 0 C1.96627466 3.51120475 2.89861468 7.14515139 4 11 C4.37125 11.70125 4.7425 12.4025 5.125 13.125 C6.2324999 15.49821407 6.06995638 17.41161407 6 20 C6.33 20.33 6.66 20.66 7 21 C7.04063832 22.66617115 7.042721 24.33388095 7 26 C6.34 26 5.68 26 5 26 C5.11837405 31.19627839 5.24263118 36.39237044 5.37231445 41.58837891 C5.41559514 43.35559272 5.45727505 45.1228465 5.49731445 46.89013672 C5.55518351 49.4320886 5.61882981 51.97384059 5.68359375 54.515625 C5.70030624 55.30430969 5.71701874 56.09299438 5.73423767 56.90557861 C5.8288914 60.41959549 6.06273524 63.61519632 7 67 C5.68 66.67 4.36 66.34 3 66 C3.00523682 65.04859131 3.01047363 64.09718262 3.01586914 63.11694336 C3.03427914 59.51050802 3.04556029 55.90407661 3.05493164 52.29760742 C3.05989112 50.75105079 3.06666077 49.20449866 3.07543945 47.65795898 C3.32554538 27.38688444 3.32554538 27.38688444 -0.4765625 7.5859375 C-1.05652401 4.72075454 -0.75802676 2.7996455 0 0 Z " fill="#0389CD" transform="translate(301,168)"/>
<path d="M0 0 C1.485 0.99 1.485 0.99 3 2 C3.35644531 5.04101562 3.35644531 5.04101562 3.328125 8.90625 C3.32531525 9.92700623 3.32531525 9.92700623 3.32244873 10.96838379 C3.31572456 12.40752052 3.30180264 13.84663886 3.28125 15.28564453 C3.2501216 17.49138324 3.24028244 19.69640727 3.234375 21.90234375 C3.16367616 32.67264767 3.16367616 32.67264767 2 35 C1.34 35 0.68 35 0 35 C0 23.45 0 11.9 0 0 Z " fill="#027BAC" transform="translate(153,194)"/>
<path d="M0 0 C0.66 0.33 1.32 0.66 2 1 C2 18.16 2 35.32 2 53 C1.67 53 1.34 53 1 53 C1 48.05 1 43.1 1 38 C0.34 38 -0.32 38 -1 38 C-1 31.4 -1 24.8 -1 18 C-0.34 18 0.32 18 1 18 C0.67 12.06 0.34 6.12 0 0 Z " fill="#069EDF" transform="translate(110,150)"/>
<path d="M0 0 C2.14927727 0.95058439 4.29434362 1.91069497 6.4375 2.875 C7.63246094 3.40867187 8.82742188 3.94234375 10.05859375 4.4921875 C13 6 13 6 14 8 C14.71542969 8.25523438 15.43085938 8.51046875 16.16796875 8.7734375 C19.92072749 10.39877025 22.38412952 12.82116532 25.3125 15.625 C26.13717773 16.3984375 26.13717773 16.3984375 26.97851562 17.1875 C28.32498054 18.45200618 29.66332535 19.72514922 31 21 C30.34 21.99 29.68 22.98 29 24 C28.50113281 23.443125 28.00226563 22.88625 27.48828125 22.3125 C19.36863176 13.68263914 9.65533346 8.01427457 -1 3 C-0.67 2.01 -0.34 1.02 0 0 Z " fill="#058DCA" transform="translate(331,84)"/>
<path d="M0 0 C0.79921875 0.20367187 1.5984375 0.40734375 2.421875 0.6171875 C3.02515625 0.78476563 3.6284375 0.95234375 4.25 1.125 C4.25 1.785 4.25 2.445 4.25 3.125 C4.95125 3.2075 5.6525 3.29 6.375 3.375 C11.73194857 4.77246484 16.14210828 8.50038965 20.25 12.125 C20.25 12.785 20.25 13.445 20.25 14.125 C16.56564462 13.39131884 14.31343079 11.75296279 11.30078125 9.52734375 C5.09413943 5.28318296 -1.41304642 2.61956462 -8.75 1.125 C-5.45750312 -0.91393155 -3.7130065 -0.98285466 0 0 Z " fill="#0290CE" transform="translate(259.75,127.875)"/>
<path d="M0 0 C0.33 0.99 0.66 1.98 1 3 C0.01 3.33 -0.98 3.66 -2 4 C-2 4.66 -2 5.32 -2 6 C-7.47619048 11 -7.47619048 11 -10 11 C-10.27070313 11.57363281 -10.54140625 12.14726562 -10.8203125 12.73828125 C-12.02176603 15.04173025 -13.35175211 17.08415511 -14.875 19.1875 C-15.36742187 19.88230469 -15.85984375 20.57710937 -16.3671875 21.29296875 C-18.22032464 23.2303394 -19.38474375 23.62073124 -22 24 C-19.25 18.125 -19.25 18.125 -17 17 C-16.443125 16.13375 -15.88625 15.2675 -15.3125 14.375 C-11.38492677 8.3011321 -6.13408313 3.74029459 0 0 Z " fill="#028EC9" transform="translate(186,137)"/>
<path d="M0 0 C0.66 0 1.32 0 2 0 C3.91370383 24.7072834 3.91370383 24.7072834 2 33 C0 31 0 31 -0.22705078 27.92724609 C-0.21657715 26.63898926 -0.20610352 25.35073242 -0.1953125 24.0234375 C-0.1924826 23.33819 -0.18965271 22.6529425 -0.18673706 21.94692993 C-0.17553281 19.75610973 -0.15042859 17.56569684 -0.125 15.375 C-0.11497048 13.8906309 -0.10584458 12.4062554 -0.09765625 10.921875 C-0.07559294 7.28111739 -0.04106176 3.64059844 0 0 Z " fill="#0799D7" transform="translate(109,188)"/>
<path d="M0 0 C0.33 1.32 0.66 2.64 1 4 C0.38125 4.2475 -0.2375 4.495 -0.875 4.75 C-3.35068687 6.20628639 -3.95125002 7.37812506 -5 10 C-5.66 10 -6.32 10 -7 10 C-7.268125 10.639375 -7.53625 11.27875 -7.8125 11.9375 C-9 14 -9 14 -12 15 C-12.6837045 16.32467746 -13.34964186 17.65863633 -14 19 C-14.99 19.66 -15.98 20.32 -17 21 C-17.99 20.67 -18.98 20.34 -20 20 C-13.4 13.4 -6.8 6.8 0 0 Z " fill="#0280C9" transform="translate(332,299)"/>
<path d="M0 0 C2.97 0.33 5.94 0.66 9 1 C9.81775027 4.27100109 10.12235633 6.48344672 10.11352539 9.76855469 C10.11344986 10.70922791 10.11337433 11.64990112 10.11329651 12.61907959 C10.10813522 13.62650208 10.10297394 14.63392456 10.09765625 15.671875 C10.0962413 16.70942932 10.09482635 17.74698364 10.09336853 18.815979 C10.08777447 22.12734876 10.07522303 25.43865071 10.0625 28.75 C10.05748423 30.99609277 10.05292146 33.24218661 10.04882812 35.48828125 C10.03780699 40.9922106 10.02107474 46.49610046 10 52 C9.67 52 9.34 52 9 52 C8.98018066 50.69329346 8.96036133 49.38658691 8.93994141 48.0402832 C8.86378281 43.1852718 8.77508094 38.33055608 8.68261719 33.47583008 C8.64436986 31.37595463 8.6095096 29.27601462 8.578125 27.17602539 C8.5323825 24.15487619 8.47440277 21.13416984 8.4140625 18.11328125 C8.40251129 17.17664139 8.39096008 16.24000153 8.37905884 15.27497864 C8.30528165 8.87744955 8.30528165 8.87744955 6 3 C2.97017694 1.62810173 2.97017694 1.62810173 0 1 C0 0.67 0 0.34 0 0 Z " fill="#008AD7" transform="translate(132,353)"/>
<path d="M0 0 C0.66 0.33 1.32 0.66 2 1 C-4.93 7.93 -11.86 14.86 -19 22 C-19 19 -19 19 -17.6875 17.625 C-17.130625 17.08875 -16.57375 16.5525 -16 16 C-15.57332031 15.24976563 -15.14664062 14.49953125 -14.70703125 13.7265625 C-12.77598376 10.64218916 -10.57892125 8.31357053 -8 5.75 C-7.13375 4.87859375 -6.2675 4.0071875 -5.375 3.109375 C-3 1 -3 1 0 0 Z " fill="#0083C4" transform="translate(376,223)"/>
<path d="M0 0 C0.66 0.33 1.32 0.66 2 1 C0.6672829 4.59449179 -0.95414742 7.6999383 -3 10.9375 C-5.21109083 14.54535309 -6.91464157 17.87563796 -8 22 C-9.32 22 -10.64 22 -12 22 C-10.25 15.25 -10.25 15.25 -8 13 C-7.25439486 11.64484905 -6.54869338 10.26729966 -5.875 8.875 C-5.34519531 7.78832031 -5.34519531 7.78832031 -4.8046875 6.6796875 C-4.53914063 6.12539062 -4.27359375 5.57109375 -4 5 C-3.34 5 -2.68 5 -2 5 C-1.34 3.35 -0.68 1.7 0 0 Z " fill="#058ECA" transform="translate(98,106)"/>
<path d="M0 0 C0.66 0 1.32 0 2 0 C2.33 16.5 2.66 33 3 50 C2.34 50 1.68 50 1 50 C0.95101562 49.00097656 0.90203125 48.00195312 0.8515625 46.97265625 C0.77679688 45.68230469 0.70203125 44.39195312 0.625 43.0625 C0.55539063 41.77472656 0.48578125 40.48695313 0.4140625 39.16015625 C0.27742187 38.11730469 0.14078125 37.07445312 0 36 C-0.66 35.67 -1.32 35.34 -2 35 C-1.34 35 -0.68 35 0 35 C0 23.45 0 11.9 0 0 Z " fill="#038AD5" transform="translate(155,194)"/>
<path d="M0 0 C1.32 0.33 2.64 0.66 4 1 C3.09636719 1.89203125 2.19273437 2.7840625 1.26171875 3.703125 C0.07017921 4.88528234 -1.12121966 6.06758147 -2.3125 7.25 C-2.90740234 7.83652344 -3.50230469 8.42304688 -4.11523438 9.02734375 C-6.51571073 11.41440962 -8.75825023 13.66165947 -10.73046875 16.421875 C-11.14941406 16.94265625 -11.56835938 17.4634375 -12 18 C-12.99 18 -13.98 18 -15 18 C-12.80585233 12.81383278 -9.12893522 8.81630561 -4.8125 5.3125 C-1.87245245 3.12328275 -1.87245245 3.12328275 0 0 Z " fill="#0288CC" transform="translate(255,297)"/>
<path d="M0 0 C1.53508028 2.43338652 2.03088304 3.67124507 1.7578125 6.578125 C1.54898438 7.45984375 1.34015625 8.3415625 1.125 9.25 C0.92132813 10.14203125 0.71765625 11.0340625 0.5078125 11.953125 C0.34023437 12.62859375 0.17265625 13.3040625 0 14 C-0.33 14 -0.66 14 -1 14 C-1 19.61 -1 25.22 -1 31 C-1.66 31 -2.32 31 -3 31 C-3.57446809 9.27659574 -3.57446809 9.27659574 0 0 Z " fill="#058ACE" transform="translate(112,137)"/>
<path d="M0 0 C0.99 0 1.98 0 3 0 C3.3403125 1.85625 3.3403125 1.85625 3.6875 3.75 C4.70675645 7.96094272 6.40137177 9.53778068 10 12 C10 12.66 10 13.32 10 14 C10.66 14 11.32 14 12 14 C12.103125 14.639375 12.20625 15.27875 12.3125 15.9375 C12.539375 16.618125 12.76625 17.29875 13 18 C13.99 18.33 14.98 18.66 16 19 C15.34 19.66 14.68 20.32 14 21 C11.99387601 19.04761147 9.99507567 17.08862178 8 15.125 C7.42765625 14.56941406 6.8553125 14.01382812 6.265625 13.44140625 C4.80549218 11.99865596 3.39850702 10.5025626 2 9 C2 8.34 2 7.68 2 7 C1.484375 6.54625 0.96875 6.0925 0.4375 5.625 C-0.036875 5.08875 -0.51125 4.5525 -1 4 C-0.6875 1.8125 -0.6875 1.8125 0 0 Z " fill="#0388CD" transform="translate(254,326)"/>
<path d="M0 0 C2.76647002 0.38423195 4.59745301 0.6807386 6.8125 2.4375 C10.12516004 4.80368574 12.96926779 5.36020124 17 6 C19.05004839 4.7893443 19.05004839 4.7893443 20 3 C20.33 3.99 20.66 4.98 21 6 C19.5625 8.1875 19.5625 8.1875 18 10 C11.97229862 9.52412884 7.23321711 6.80277043 2 4 C2 3.34 2 2.68 2 2 C1.34 2 0.68 2 0 2 C0 1.34 0 0.68 0 0 Z " fill="#0181D1" transform="translate(126,321)"/>
<path d="M0 0 C0.66 0 1.32 0 2 0 C1.48221876 4.14224994 0.36514225 7.63323728 -1.16796875 11.5 C-2.95190337 16.86017915 -3.90401976 22.46568841 -5 28 C-5.33 28 -5.66 28 -6 28 C-6.3935298 17.75365007 -6.33295808 8.53572611 0 0 Z M-2 5 C-1 7 -1 7 -1 7 Z " fill="#0389D0" transform="translate(162,164)"/>
<path d="M0 0 C1.98 0 3.96 0 6 0 C3.53812787 2.7171164 0.80662186 4.46815095 -2.3125 6.375 C-5.59112062 8.41060329 -8.63371759 10.41529193 -11.5 13 C-12.325 13.66 -13.15 14.32 -14 15 C-14.99 14.67 -15.98 14.34 -17 14 C-15.11492027 12.17505041 -13.21833245 10.36555602 -11.3125 8.5625 C-10.51682617 7.7880957 -10.51682617 7.7880957 -9.70507812 6.99804688 C-6.5818343 4.06641311 -4.33672604 2.31378908 0 2 C0 1.34 0 0.68 0 0 Z " fill="#068FC7" transform="translate(117,90)"/>
<path d="M0 0 C3.875 1.75 3.875 1.75 5 4 C5.8971875 5.0828125 5.8971875 5.0828125 6.8125 6.1875 C9.29551397 9.37994653 11.18972955 12.3794591 13 16 C12.67 16.99 12.34 17.98 12 19 C8.60514262 16.73676175 7.82706495 15.14526017 6 11.5625 C4.05314967 7.66366009 4.05314967 7.66366009 1.3125 4.33984375 C0 3 0 3 0 0 Z " fill="#028CD0" transform="translate(288,150)"/>
<path d="M0 0 C3.33049122 1.42630308 5.31738937 3.15014396 7.6875 5.875 C8.28949219 6.55304688 8.89148438 7.23109375 9.51171875 7.9296875 C11.00766194 10.01065834 11.5789756 11.49630826 12 14 C11.01 14 10.02 14 9 14 C8.67 14.66 8.34 15.32 8 16 C5.03 15.505 5.03 15.505 2 15 C2 14.67 2 14.34 2 14 C3.98 14 5.96 14 8 14 C6.66557394 9.596394 4.30702993 6.85758493 1.2421875 3.55078125 C0 2 0 2 0 0 Z " fill="#038DCD" transform="translate(239,342)"/>
<path d="M0 0 C0.99 0 1.98 0 3 0 C1.61122646 3.35620271 0.08322035 5.07298728 -3 7 C-3.66 7 -4.32 7 -5 7 C-5.66 8.32 -6.32 9.64 -7 11 C-7.66 11 -8.32 11 -9 11 C-9.2475 11.639375 -9.495 12.27875 -9.75 12.9375 C-11 15 -11 15 -13.125 15.75 C-14.053125 15.87375 -14.053125 15.87375 -15 16 C-13.66198588 12.9350908 -12.29092019 11.14639067 -9.6875 9.0625 C-6.59856567 6.52170642 -3.78608068 3.86802423 -1 1 C-0.67 0.67 -0.34 0.34 0 0 Z " fill="#028BCA" transform="translate(271,309)"/>
<path d="M0 0 C0.33 0 0.66 0 1 0 C1 11.22 1 22.44 1 34 C0.67 34 0.34 34 0 34 C0 29.05 0 24.1 0 19 C-0.66 19 -1.32 19 -2 19 C-2 16.69 -2 14.38 -2 12 C-1.67 12 -1.34 12 -1 12 C-0.67 8.04 -0.34 4.08 0 0 Z " fill="#01D0F3" transform="translate(111,169)"/>
<path d="M0 0 C15 0 15 0 17 1 C17 1.66 17 2.32 17 3 C13.10939581 4.4049404 9.76907638 3.69513239 5.75 3.0625 C3.85507813 2.77052734 3.85507813 2.77052734 1.921875 2.47265625 C0.95765625 2.31667969 -0.0065625 2.16070312 -1 2 C-0.67 1.34 -0.34 0.68 0 0 Z " fill="#0484CD" transform="translate(234,124)"/>
<path d="M0 0 C0.66 0 1.32 0 2 0 C2 0.66 2 1.32 2 2 C2.66 2 3.32 2 4 2 C4 2.66 4 3.32 4 4 C4.66 4 5.32 4 6 4 C7.7265625 5.75 7.7265625 5.75 9.625 8 C10.25664062 8.7425 10.88828125 9.485 11.5390625 10.25 C12.02117187 10.8275 12.50328125 11.405 13 12 C12.34 12.66 11.68 13.32 11 14 C7.04 10.04 3.08 6.08 -1 2 C-0.67 1.34 -0.34 0.68 0 0 Z " fill="#0488C8" transform="translate(283,359)"/>
<path d="M0 0 C2.50356732 3.75535098 1.9608592 4.86889414 1.125 9.1875 C0.92132813 10.27417969 0.71765625 11.36085938 0.5078125 12.48046875 C0.34023437 13.31191406 0.17265625 14.14335937 0 15 C-0.99 15 -1.98 15 -3 15 C-3.3152595 9.01006953 -2.68219822 5.36439644 0 0 Z " fill="#0475D0" transform="translate(238,317)"/>
<path d="M0 0 C1.32 0 2.64 0 4 0 C5.484375 1.609375 5.484375 1.609375 6.75 3.75 C7.17796875 4.44609375 7.6059375 5.1421875 8.046875 5.859375 C9 8 9 8 9 12 C5.03126566 10.67708855 4.70094963 9.08850262 2.8125 5.4375 C2.28269531 4.42558594 1.75289063 3.41367188 1.20703125 2.37109375 C0.80871094 1.58863281 0.41039062 0.80617188 0 0 Z " fill="#028ED2" transform="translate(339,125)"/>
<path d="M0 0 C0.33 0.66 0.66 1.32 1 2 C1.8971875 2.1546875 1.8971875 2.1546875 2.8125 2.3125 C5.95960996 3.3015917 7.06108802 5.41478403 9 8 C9.66 8.33 10.32 8.66 11 9 C11 9.99 11 10.98 11 12 C11.66 12.33 12.32 12.66 13 13 C10 13 10 13 7.30078125 10.59375 C6.29697757 9.5700032 5.30114351 8.5383946 4.3125 7.5 C3.80138672 6.97535156 3.29027344 6.45070313 2.76367188 5.91015625 C1.50227292 4.61339096 0.25022788 3.30753883 -1 2 C-0.67 1.34 -0.34 0.68 0 0 Z " fill="#0487CB" transform="translate(270,346)"/>
<path d="M0 0 C1.41764994 0.93601246 2.83407568 1.8738792 4.25 2.8125 C5.03890625 3.33457031 5.8278125 3.85664063 6.640625 4.39453125 C8.81092481 5.87134122 10.91413768 7.40689873 13 9 C12.67 10.32 12.34 11.64 12 13 C10.5574598 11.92338719 9.12116839 10.83839897 7.6875 9.75 C6.88699219 9.14671875 6.08648437 8.5434375 5.26171875 7.921875 C3.09632162 6.08184843 1.52561618 4.38963828 0 2 C0 1.34 0 0.68 0 0 Z " fill="#048CD0" transform="translate(104,337)"/>
<path d="M0 0 C0.33 0.66 0.66 1.32 1 2 C-0.97367827 6.05700533 -3.58476625 9.07265679 -7 12 C-9.8125 12.8125 -9.8125 12.8125 -12 13 C-8 9 -8 9 -6 7.0625 C-3.83000092 4.82468845 -1.91278482 2.45929477 0 0 Z " fill="#0083E9" transform="translate(372,258)"/>
<path d="M0 0 C-1 2 -1 2 -2.85546875 2.6328125 C-7.31497489 3.5740148 -11.41164496 4.23530026 -16 4 C-15.01 3.34 -14.02 2.68 -13 2 C-12.34 1.34 -11.68 0.68 -11 0 C-7.27111943 -1.51917357 -3.87218416 -0.67018572 0 0 Z " fill="#0584D5" transform="translate(152,81)"/>
<path d="M0 0 C0.66 0 1.32 0 2 0 C3.69140625 1.8984375 3.69140625 1.8984375 5.5625 4.375 C6.49255859 5.59316406 6.49255859 5.59316406 7.44140625 6.8359375 C9 9 9 9 10 11 C7.19294916 10.91979855 5.51793117 10.54452763 3.5546875 8.48046875 C0 3.65625 0 3.65625 0 0 Z " fill="#0183CB" transform="translate(166,263)"/>
<path d="M0 0 C0.99 0.33 1.98 0.66 3 1 C-2.96583144 8.66742597 -2.96583144 8.66742597 -8 10 C-6.34908222 5.70761377 -3.26245434 3.1206085 0 0 Z " fill="#0288CA" transform="translate(156,312)"/>
<path d="M0 0 C2.79081339 1.3954067 3.03903006 3.01419041 4.1875 5.875 C4.55230469 6.75929687 4.91710937 7.64359375 5.29296875 8.5546875 C6 11 6 11 5 14 C2.27573689 11.64722731 1.1858237 9.37503669 0 6 C0.33 5.67 0.66 5.34 1 5 C0.34 4.34 -0.32 3.68 -1 3 C-0.67 2.01 -0.34 1.02 0 0 Z " fill="#0387CA" transform="translate(158,245)"/>
<path d="M0 0 C3.0390625 -0.29296875 3.0390625 -0.29296875 6.625 -0.1875 C7.81351563 -0.16042969 9.00203125 -0.13335937 10.2265625 -0.10546875 C11.14179688 -0.07066406 12.05703125 -0.03585938 13 0 C13 0.66 13 1.32 13 2 C8.05 2.33 3.1 2.66 -2 3 C-1.34 2.01 -0.68 1.02 0 0 Z " fill="#0588CF" transform="translate(218,124)"/>
<path d="M0 0 C4.09173803 2.87527537 6.01138727 5.42619071 8 10 C8.33 10.66 8.66 11.32 9 12 C6.13302508 10.71480435 4.02392288 9.42870746 2 7 C2 6.34 2 5.68 2 5 C0.54166642 3.37485532 0.54166642 3.37485532 -1 2 C-0.67 1.34 -0.34 0.68 0 0 Z " fill="#0284E0" transform="translate(97,329)"/>
<path d="M0 0 C0.33 0.99 0.66 1.98 1 3 C0.21625 3.763125 -0.5675 4.52625 -1.375 5.3125 C-4.07257717 7.90891805 -4.07257717 7.90891805 -6 11 C-6.66 11 -7.32 11 -8 11 C-8 10.34 -8 9.68 -8 9 C-8.99 9 -9.98 9 -11 9 C-10.67 8.01 -10.34 7.02 -10 6 C-8.68 6 -7.36 6 -6 6 C-4.23682295 4.7187757 -4.23682295 4.7187757 -2.75 3 C-2.22921875 2.443125 -1.7084375 1.88625 -1.171875 1.3125 C-0.78515625 0.879375 -0.3984375 0.44625 0 0 Z " fill="#0183C2" transform="translate(311,320)"/>
<path d="M0 0 C3.15473719 0.35052635 4.8233534 0.86519076 7.375 2.8125 C9 5 9 5 8.75 7.25 C8.5025 7.8275 8.255 8.405 8 9 C1.42857143 3.85714286 1.42857143 3.85714286 0 0 Z " fill="#0286E5" transform="translate(291,320)"/>
<path d="M0 0 C3.98218499 0.27782686 5.74909842 0.79273348 8.875 3.375 C11 6 11 6 11 9 C9 9 9 9 6.5625 6.625 C5.716875 5.75875 4.87125 4.8925 4 4 C3.01 3.34 2.02 2.68 1 2 C0.67 1.34 0.34 0.68 0 0 Z " fill="#0288D2" transform="translate(276,307)"/>
<path d="M0 0 C0.33 0.99 0.66 1.98 1 3 C-1.97 5.31 -4.94 7.62 -8 10 C-8.66 9.01 -9.32 8.02 -10 7 C-5.25 3.125 -5.25 3.125 -3 2 C-2.01 1.34 -1.02 0.68 0 0 Z " fill="#0286CC" transform="translate(169,303)"/>
<path d="M0 0 C1.48206495 0.254496 2.96068615 0.52911762 4.4375 0.8125 C5.67306641 1.03873047 5.67306641 1.03873047 6.93359375 1.26953125 C7.61550781 1.51058594 8.29742187 1.75164062 9 2 C9.33 2.99 9.66 3.98 10 5 C8.35333797 4.8864371 6.70763918 4.75882619 5.0625 4.625 C3.68771484 4.52058594 3.68771484 4.52058594 2.28515625 4.4140625 C1.15400391 4.20910156 1.15400391 4.20910156 0 4 C-0.33 3.34 -0.66 2.68 -1 2 C-0.67 1.34 -0.34 0.68 0 0 Z " fill="#0690CD" transform="translate(319,81)"/>
<path d="M0 0 C3 1 3 1 4.203125 2.7421875 C4.54859375 3.44601563 4.8940625 4.14984375 5.25 4.875 C5.60578125 5.57367188 5.9615625 6.27234375 6.328125 6.9921875 C7 9 7 9 6 12 C3.32098068 9.68118495 2.33795597 7.68185532 1.3125 4.3125 C1.06113281 3.50425781 0.80976563 2.69601563 0.55078125 1.86328125 C0.36902344 1.24839844 0.18726563 0.63351563 0 0 Z " fill="#029AC5" transform="translate(366,113)"/>
<path d="M0 0 C1.6045556 0.14148989 3.20863767 0.28835686 4.8125 0.4375 C5.70582031 0.51871094 6.59914063 0.59992188 7.51953125 0.68359375 C10 1 10 1 13 2 C13 2.66 13 3.32 13 4 C10.54098346 4.87822019 9.43938807 5.19223228 7 4.125 C6.34 3.75375 5.68 3.3825 5 3 C3.9171875 2.7525 3.9171875 2.7525 2.8125 2.5 C2.214375 2.335 1.61625 2.17 1 2 C0.67 1.34 0.34 0.68 0 0 Z " fill="#0385D0" transform="translate(310,108)"/>
<path d="M0 0 C-1.125 1.5 -1.125 1.5 -3 3 C-6 3.375 -6 3.375 -9 3 C-10.6875 1.4765625 -10.6875 1.4765625 -12 0 C-10.56359829 -0.19573608 -9.12580496 -0.38127816 -7.6875 -0.5625 C-6.88699219 -0.66691406 -6.08648437 -0.77132813 -5.26171875 -0.87890625 C-3 -1 -3 -1 0 0 Z " fill="#0899C9" transform="translate(153,408)"/>
<path d="M0 0 C1.6510403 0.39553053 3.2958515 0.81713897 4.9375 1.25 C5.85402344 1.48203125 6.77054687 1.7140625 7.71484375 1.953125 C10 3 10 3 10.81640625 5.109375 C10.87699219 5.73328125 10.93757812 6.3571875 11 7 C9.3489597 6.60446947 7.7041485 6.18286103 6.0625 5.75 C5.14597656 5.51796875 4.22945313 5.2859375 3.28515625 5.046875 C1 4 1 4 0.18359375 1.890625 C0.12300781 1.26671875 0.06242187 0.6428125 0 0 Z " fill="#0587CB" transform="translate(121,349)"/>
<path d="M0 0 C1.14926266 0.95421808 2.29430541 1.91352045 3.4375 2.875 C4.07558594 3.40867188 4.71367187 3.94234375 5.37109375 4.4921875 C7 6 7 6 8 8 C7.01 8.33 6.02 8.66 5 9 C3.02 6.69 1.04 4.38 -1 2 C-0.67 1.34 -0.34 0.68 0 0 Z " fill="#0186C7" transform="translate(281,141)"/>
<path d="M0 0 C0.66 0 1.32 0 2 0 C1.55530671 5.03985731 -0.71343362 7.37634988 -4 11 C-5 8 -5 8 -4.2578125 6.2109375 C-1.11111111 1.11111111 -1.11111111 1.11111111 0 0 Z " fill="#028CCA" transform="translate(119,125)"/>
<path d="M0 0 C0.99 0.99 1.98 1.98 3 3 C0.36 4.65 -2.28 6.3 -5 8 C-5.33 6.68 -5.66 5.36 -6 4 C-4.02 2.68 -2.04 1.36 0 0 Z " fill="#0288D0" transform="translate(132,113)"/>
<path d="M0 0 C0.598125 0.763125 1.19625 1.52625 1.8125 2.3125 C3.46959332 4.3483575 5.10297674 6.1978279 7 8 C6.01 8.33 5.02 8.66 4 9 C2.02 6.69 0.04 4.38 -2 2 C-1.34 1.34 -0.68 0.68 0 0 Z " fill="#038FCC" transform="translate(119,311)"/>
<path d="M0 0 C0.33 0 0.66 0 1 0 C1.17835515 4.54805635 0.99785435 7.8794254 -1 12 C-1.33 12 -1.66 12 -2 12 C-2.05422947 10.5629191 -2.09289723 9.12524538 -2.125 7.6875 C-2.14820312 6.88699219 -2.17140625 6.08648437 -2.1953125 5.26171875 C-2 3 -2 3 0 0 Z " fill="#0986C7" transform="translate(85,134)"/>
<path d="M0 0 C2.31 1.98 4.62 3.96 7 6 C6.67 6.66 6.34 7.32 6 8 C5.01 7.67 4.02 7.34 3 7 C3 6.34 3 5.68 3 5 C1.68 4.34 0.36 3.68 -1 3 C-0.67 2.01 -0.34 1.02 0 0 Z " fill="#0199B1" transform="translate(410,234)"/>
<path d="M0 0 C2.475 0.99 2.475 0.99 5 2 C2.09907498 3.93395001 1.10325263 4.30131941 -2.1875 4.625 C-3.445625 4.74875 -4.70375 4.8725 -6 5 C-5.67 4.01 -5.34 3.02 -5 2 C-3.35 1.67 -1.7 1.34 0 1 C0 0.67 0 0.34 0 0 Z " fill="#068DD0" transform="translate(210,125)"/>
<path d="M0 0 C0 0.99 0 1.98 0 3 C-2.31 4.32 -4.62 5.64 -7 7 C-6.75 4.625 -6.75 4.625 -6 2 C-3.84898936 0.54286376 -2.59713506 0 0 0 Z " fill="#0292C8" transform="translate(195,132)"/>
<path d="M0 0 C3.73487777 0.4979837 5.81237635 0.87491756 9 3 C8.67 3.99 8.34 4.98 8 6 C6.02 5.01 4.04 4.02 2 3 C2 2.34 2 1.68 2 1 C1.34 0.67 0.68 0.34 0 0 Z " fill="#0185CE" transform="translate(323,112)"/>
<path d="M0 0 C0.556875 0.226875 1.11375 0.45375 1.6875 0.6875 C1.0275 0.6875 0.3675 0.6875 -0.3125 0.6875 C-0.3125 1.6775 -0.3125 2.6675 -0.3125 3.6875 C-2.125 4.3125 -2.125 4.3125 -4.3125 4.6875 C-5.3025 4.0275 -6.2925 3.3675 -7.3125 2.6875 C-2.88173077 -0.38942308 -2.88173077 -0.38942308 0 0 Z " fill="#0384C7" transform="translate(143.3125,109.3125)"/>
<path d="M0 0 C0.33 0.66 0.66 1.32 1 2 C-0.125 4.5625 -0.125 4.5625 -2 7 C-4.6875 7.8125 -4.6875 7.8125 -7 8 C-6.5875 7.608125 -6.175 7.21625 -5.75 6.8125 C-3.67115087 4.65940626 -1.84531043 2.35436159 0 0 Z " fill="#0183ED" transform="translate(359,271)"/>
<path d="M0 0 C0.66 0 1.32 0 2 0 C1.60196439 2.88575819 1.20990931 3.82189513 -1.0625 5.75 C-1.701875 6.1625 -2.34125 6.575 -3 7 C-2.25 2.25 -2.25 2.25 0 0 Z " fill="#038AC7" transform="translate(263,290)"/>
<path d="M0 0 C0.66 0.33 1.32 0.66 2 1 C-4.28571429 6.57142857 -4.28571429 6.57142857 -8 7 C-5.80075931 3.64326421 -3.61730402 1.76227632 0 0 Z " fill="#0395BB" transform="translate(421,260)"/>
<path d="M0 0 C0.33 1.32 0.66 2.64 1 4 C-0.65 5.32 -2.3 6.64 -4 8 C-4.66 7.34 -5.32 6.68 -6 6 C-5.38125 5.566875 -4.7625 5.13375 -4.125 4.6875 C-1.7802755 3.00259517 -1.7802755 3.00259517 0 0 Z " fill="#0084E9" transform="translate(380,250)"/>
<path d="M0 0 C2.16874252 0.50603992 3.99967627 0.99983813 6 2 C5.67 3.32 5.34 4.64 5 6 C3.2925002 4.71937515 1.62626404 3.38232443 0 2 C0 1.34 0 0.68 0 0 Z " fill="#0384C0" transform="translate(111,344)"/>
<path d="M0 0 C2 1.25 2 1.25 4 3 C4 4.32 4 5.64 4 7 C3.34 7 2.68 7 2 7 C0.3125 4.625 0.3125 4.625 -1 2 C-0.67 1.34 -0.34 0.68 0 0 Z " fill="#0591CA" transform="translate(93,324)"/>
<path d="M0 0 C2.64 0 5.28 0 8 0 C6.8125 1.5625 6.8125 1.5625 5 3 C2.3125 2.6875 2.3125 2.6875 0 2 C0 1.34 0 0.68 0 0 Z " fill="#0680DB" transform="translate(299,375)"/>
<path d="M0 0 C2.1875 0.3125 2.1875 0.3125 4 1 C2.35 2.32 0.7 3.64 -1 5 C-1.66 4.34 -2.32 3.68 -3 3 C-1.75 1.4375 -1.75 1.4375 0 0 Z " fill="#0493D5" transform="translate(308,371)"/>
<path d="M0 0 C2.1875 0.3125 2.1875 0.3125 4 1 C2.1875 3 2.1875 3 0 5 C-0.99 5 -1.98 5 -3 5 C-3 3 -3 3 -1.75 1.3125 C-1.1725 0.879375 -0.595 0.44625 0 0 Z " fill="#0396CB" transform="translate(316,363)"/>
<path d="M0 0 C0.66 0 1.32 0 2 0 C2.66 2.31 3.32 4.62 4 7 C2.68 6.34 1.36 5.68 0 5 C0 3.35 0 1.7 0 0 Z " fill="#027FCC" transform="translate(236,334)"/>
<path d="M0 0 C3.68754757 0.49831724 5.60490662 1.10067643 8 4 C4.25 5.125 4.25 5.125 2 4 C2 3.34 2 2.68 2 2 C1.34 2 0.68 2 0 2 C0 1.34 0 0.68 0 0 Z " fill="#018CCC" transform="translate(126,321)"/>
<path d="M0 0 C0 0.66 0 1.32 0 2 C-4.625 4.125 -4.625 4.125 -8 3 C-5.53387212 -0.1151089 -3.89156016 -0.31553191 0 0 Z " fill="#058ACF" transform="translate(135,84)"/>
<path d="M0 0 C0.33 0 0.66 0 1 0 C1 1.98 1 3.96 1 6 C0.67 6 0.34 6 0 6 C0 4.02 0 2.04 0 0 Z " fill="#0091FF" transform="translate(154,185)"/>
<path d="M0 0 C0.33 0 0.66 0 1 0 C1 1.65 1 3.3 1 5 C0.67 5 0.34 5 0 5 C0 3.35 0 1.7 0 0 Z " fill="#0080FF" transform="translate(154,232)"/>
<path d="M0 0 C3 1 3 1 3 1 Z " fill="#0071CE" transform="translate(133,356)"/>
<path d="" fill="#0080CE" transform="translate(0,0)"/>
<path d="" fill="#0082B0" transform="translate(0,0)"/>
<path d="M0 0 C3 1 3 1 3 1 Z " fill="#00B6EC" transform="translate(144,111)"/>
<path d="" fill="#0080E0" transform="translate(0,0)"/>
<path d="" fill="#00D4FF" transform="translate(0,0)"/>
<path d="" fill="#008CC6" transform="translate(0,0)"/>
<path d="M0 0 C2 1 2 1 2 1 Z " fill="#007FCB" transform="translate(253,126)"/>
<path d="M0 0 C2 1 2 1 2 1 Z " fill="#0095B4" transform="translate(207,126)"/>
<path d="M0 0 C2 1 2 1 2 1 Z " fill="#0097B3" transform="translate(137,82)"/>
<path d="" fill="#00AAAA" transform="translate(0,0)"/>
<path d="" fill="#007FFF" transform="translate(0,0)"/>
<path d="" fill="#007FBF" transform="translate(0,0)"/>
<path d="" fill="#0080FF" transform="translate(0,0)"/>
<path d="" fill="#00FFFF" transform="translate(0,0)"/>
<path d="" fill="#00FFFF" transform="translate(0,0)"/>
<path d="" fill="#0080FF" transform="translate(0,0)"/>
<path d="" fill="#0080FF" transform="translate(0,0)"/>
<path d="" fill="#0080FF" transform="translate(0,0)"/>
<path d="" fill="#0080FF" transform="translate(0,0)"/>
<path d="" fill="#0080FF" transform="translate(0,0)"/>
<path d="" fill="#0080FF" transform="translate(0,0)"/>
<path d="" fill="#00ABAB" transform="translate(0,0)"/>
<path d="" fill="#0080FF" transform="translate(0,0)"/>
<path d="" fill="#007FFF" transform="translate(0,0)"/>
<path d="" fill="#0080FF" transform="translate(0,0)"/>
<path d="" fill="#0080FF" transform="translate(0,0)"/>
<path d="" fill="#00AAAA" transform="translate(0,0)"/>
<path d="" fill="#00AAAA" transform="translate(0,0)"/>
<path d="" fill="#00B2B2" transform="translate(0,0)"/>
<path d="" fill="#0080BF" transform="translate(0,0)"/>
</svg>
